<svg version="1.1" id="Layer_1" xmlns="http://www.w3.org/2000/svg" xmlns:xlink="http://www.w3.org/1999/xlink" x="0px" y="0px"
	 width="100%" viewBox="0 0 1024 1024" enable-background="new 0 0 1024 1024" xml:space="preserve">
<path fill="#000000" opacity="1.000000" stroke="none" 
	d="
M525.362671,314.646606 
	C538.399353,328.688751 546.435791,345.344482 554.078552,362.217194 
	C560.060364,375.423157 564.942078,389.070312 569.873169,402.690430 
	C571.356262,406.786896 573.115540,409.320374 578.316223,410.083466 
	C607.619568,414.383179 635.795776,422.652649 662.402893,435.887604 
	C677.706177,443.499725 692.037537,452.613586 704.367371,464.501373 
	C732.257690,491.391968 734.424988,528.992126 709.678162,560.493530 
	C689.402283,586.303650 662.783630,603.735291 632.761719,616.076599 
	C606.272217,626.965942 578.598389,633.036987 550.014404,635.495667 
	C498.167480,639.955322 448.861145,631.263611 402.375549,607.790527 
	C373.238190,593.077454 348.336304,573.213135 329.475220,546.158081 
	C313.675018,523.493652 315.307800,502.900116 331.355469,481.226074 
	C355.653503,448.409149 389.380524,429.456146 427.237122,416.787506 
	C439.546570,412.668121 452.067139,409.241272 464.990784,407.570618 
	C468.409332,407.128693 470.161987,404.952606 471.391571,402.010010 
	C476.277466,390.317627 482.378906,379.212982 488.003326,367.878265 
	C488.865417,366.140839 489.287018,364.030853 492.067413,362.646790 
	C512.535522,382.396149 523.812683,407.822479 535.562805,434.643341 
	C528.830444,434.061371 523.168457,434.855469 517.462158,435.227112 
	C457.455994,439.135468 404.615417,460.609344 359.106384,499.965179 
	C352.639771,505.557495 352.589935,506.777588 357.265198,514.054504 
	C381.332672,551.514893 415.894470,574.732056 457.747345,588.006714 
	C481.959442,595.686157 506.871429,598.543030 532.148071,597.596069 
	C584.468567,595.635864 630.814087,578.507080 669.108582,541.981384 
	C676.698547,534.742004 682.895630,526.193665 689.064209,517.679749 
	C691.388855,514.471313 691.104492,512.298828 688.474731,509.523071 
	C676.106323,496.467896 661.936707,485.813049 646.302002,476.999176 
	C630.405701,468.037842 613.611450,461.292175 596.098450,456.279266 
	C594.253784,455.751282 592.261414,454.627625 590.467896,456.440186 
	C588.475647,458.453522 589.877808,460.513977 590.554443,462.483978 
	C601.045715,493.031525 612.057068,523.391968 623.665894,553.531738 
	C625.195068,557.501892 624.963440,559.580383 620.480408,561.344666 
	C608.877869,565.910583 597.513672,571.082214 585.194641,576.381836 
	C567.388062,532.577332 550.206238,488.822296 529.179321,446.201111 
	C534.271790,445.187897 538.618286,445.978821 543.002014,446.462860 
	C552.760010,447.540405 554.225708,446.047852 550.648071,437.088684 
	C540.502869,411.682800 529.755371,386.446991 512.136475,365.131805 
	C492.155457,340.958893 464.932434,334.777527 436.163849,347.212189 
	C410.981049,358.096954 390.730988,375.295380 373.809601,396.687988 
	C362.036743,411.571594 352.469543,427.653320 346.354584,445.681122 
	C345.889923,447.050934 345.049744,447.911621 343.942017,448.716705 
	C325.164124,462.364532 311.735046,479.874420 305.239166,502.387024 
	C305.115204,502.816559 304.705719,503.163666 304.359131,503.647369 
	C302.111908,502.816315 302.787292,500.905975 302.727509,499.434479 
	C301.172577,461.156738 311.223633,426.010223 331.399261,393.619354 
	C354.176819,357.051270 384.981354,329.268829 423.551300,310.220306 
	C440.648132,301.776733 458.507019,295.476166 477.860718,294.708740 
	C496.644470,293.963959 512.385803,300.580170 525.362671,314.646606 
z"/>
<path fill="#000000" opacity="1.000000" stroke="none" 
	d="
M624.650879,718.722778 
	C587.546753,737.977722 548.290466,746.250366 507.105377,744.093018 
	C459.500519,741.599365 416.900604,725.326538 379.860321,694.959778 
	C354.848785,674.454529 335.402771,649.562683 321.217651,620.608887 
	C312.071503,601.940369 306.644745,582.148682 304.514343,561.389771 
	C303.645630,552.924988 303.819275,544.560486 303.677917,536.187805 
	C305.604980,535.972168 305.963287,536.982117 306.267395,537.907776 
	C310.055939,549.438721 317.363312,558.781372 325.376251,567.497070 
	C352.454315,596.950195 384.617249,618.943604 422.411621,632.417114 
	C426.204437,633.769226 427.898895,634.837952 425.532013,639.386353 
	C421.546600,647.045166 418.911377,655.403992 414.963959,663.085938 
	C412.477814,667.924011 413.790558,670.738770 417.573578,673.644226 
	C429.256348,682.616821 441.812164,690.023804 455.375702,695.824768 
	C481.275085,706.901672 508.457916,709.806519 536.110962,707.484680 
	C567.798950,704.824097 596.007629,692.711731 620.658447,672.595154 
	C627.093384,667.343872 626.875916,667.117310 623.532471,659.217773 
	C621.066589,653.391602 618.797119,647.479126 616.202148,641.712158 
	C614.708618,638.393127 615.459412,637.417358 619.043396,636.356384 
	C657.695190,624.913818 691.658142,605.619080 718.353882,574.944946 
	C727.333374,564.627319 734.887512,553.166199 737.511353,539.249207 
	C737.648926,538.519592 737.999939,537.830139 738.868958,537.269775 
	C739.629395,561.304260 734.262512,584.304443 725.656311,606.416565 
	C706.233887,656.319031 671.452148,692.765015 624.650879,718.722778 
z"/>
<path fill="#000000" opacity="1.000000" stroke="none" 
	d="
M625.949341,361.075684 
	C606.391357,348.914001 585.553894,341.504761 562.984436,339.104736 
	C559.271729,338.709930 556.685730,337.281158 554.818420,333.697601 
	C550.422302,325.260742 544.728699,317.635559 538.824463,310.180420 
	C537.518494,308.531403 535.775818,307.103455 535.294250,304.189789 
	C591.963379,300.299286 640.651245,318.092346 680.848999,357.594299 
	C721.340759,397.385132 740.239990,446.554993 740.375610,503.054901 
	C737.744202,500.805054 738.372559,497.479034 737.778748,494.654175 
	C734.095032,477.132141 723.685547,463.995972 710.794373,452.487671 
	C706.343567,448.514343 701.989685,444.315521 696.563416,441.557037 
	C694.458618,440.487000 693.791382,438.329407 692.888000,436.369263 
	C678.253723,404.614380 656.149170,379.484589 625.949341,361.075684 
z"/>
<path fill="#000000" opacity="1.000000" stroke="none" 
	d="
M477.729034,527.597778 
	C471.296539,542.624817 464.943848,557.272949 458.821533,572.016785 
	C457.584503,574.995850 456.590149,575.796509 453.412170,574.229858 
	C442.676544,568.937744 431.821350,563.877197 420.893585,558.992920 
	C417.787415,557.604553 416.896118,556.136658 418.197968,552.924377 
	C425.878387,533.972656 433.394440,514.954346 441.064575,495.998413 
	C445.555084,484.900726 450.271057,473.894379 454.788147,462.807251 
	C455.802948,460.316467 457.169495,458.668060 459.965912,458.066895 
	C475.875549,454.646729 491.835938,451.562622 508.062103,450.059601 
	C509.228241,449.951599 510.403687,449.929779 511.913818,451.541595 
	C498.674591,475.694519 488.970612,501.774780 477.729034,527.597778 
z"/>
</svg>